<?xml version="1.0" standalone="no"?>
<!DOCTYPE svg PUBLIC "-//W3C//DTD SVG 20010904//EN"
 "http://www.w3.org/TR/2001/REC-SVG-20010904/DTD/svg10.dtd">
<svg version="1.0" xmlns="http://www.w3.org/2000/svg"
 width="512.000000pt" height="512.000000pt" viewBox="0 0 512.000000 512.000000"
 preserveAspectRatio="xMidYMid meet">
<metadata>
Created by potrace 1.15, written by Peter Selinger 2001-2017
</metadata>
<g transform="translate(0.000000,512.000000) scale(0.100000,-0.100000)"
fill="#000000" stroke="none">
<path d="M4820 4844 c-97 -97 -212 -167 -435 -262 -302 -129 -677 -235 -1225
-347 -955 -195 -1489 -353 -1910 -566 -435 -219 -663 -462 -735 -784 -55 -243
-111 -652 -164 -1185 -57 -570 -125 -1460 -113 -1471 4 -4 23 -9 43 -12 l36
-5 32 131 c44 176 150 545 213 737 245 748 518 1291 779 1549 119 117 414 308
684 443 261 131 456 208 1090 433 512 181 612 220 770 295 278 134 530 316
692 500 108 122 201 264 243 369 26 67 70 231 61 231 -3 -1 -31 -26 -61 -56z
m-140 -261 c-50 -89 -148 -209 -251 -308 -166 -159 -332 -272 -574 -390 -184
-90 -226 -106 -745 -290 -666 -236 -845 -307 -1114 -441 -288 -144 -591 -340
-716 -464 -314 -311 -586 -883 -899 -1890 -29 -92 -29 -93 -25 -40 3 30 16
194 30 365 73 905 170 1642 243 1851 37 105 98 193 210 305 359 357 1021 602
2361 874 630 128 1057 258 1365 416 72 36 134 67 138 68 5 0 -6 -25 -23 -56z"/>
<path d="M3890 3529 c-142 -73 -452 -192 -865 -334 -589 -202 -783 -279 -1053
-420 -179 -93 -279 -163 -395 -274 -171 -164 -352 -407 -499 -671 -53 -94
-118 -224 -118 -235 0 -1 114 42 253 97 760 299 1384 524 1770 639 95 28 205
66 244 84 265 122 497 389 647 745 69 163 143 422 119 419 -4 -1 -51 -23 -103
-50z m-50 -215 c-105 -300 -293 -579 -488 -722 -99 -73 -171 -108 -317 -153
-481 -149 -1063 -357 -1719 -613 -93 -37 -170 -65 -172 -63 -6 6 101 181 182
300 151 221 315 400 454 499 229 161 585 317 1220 533 349 119 612 215 765
281 55 23 101 39 103 35 1 -4 -11 -48 -28 -97z"/>
</g>
</svg>
