<?xml version="1.0" encoding="utf-8"?>
<!-- Generator: Adobe Illustrator 23.0.0, SVG Export Plug-In . SVG Version: 6.00 Build 0)  -->
<svg version="1.1"
	 id="svg2" xmlns:cc="http://creativecommons.org/ns#" xmlns:dc="http://purl.org/dc/elements/1.1/" xmlns:inkscape="http://www.inkscape.org/namespaces/inkscape" xmlns:rdf="http://www.w3.org/1999/02/22-rdf-syntax-ns#" xmlns:sodipodi="http://sodipodi.sourceforge.net/DTD/sodipodi-0.dtd" xmlns:svg="http://www.w3.org/2000/svg"
	 xmlns="http://www.w3.org/2000/svg" xmlns:xlink="http://www.w3.org/1999/xlink" x="0px" y="0px" viewBox="0 0 497 474"
	 style="enable-background:new 0 0 497 474;" xml:space="preserve">
<style type="text/css">
	.st0{opacity:0.1;}
	.st1{fill:#FFFFFF;}
	.st2{fill:#007CC4;}
</style>
<sodipodi:namedview  bordercolor="#666666" borderopacity="1" gridtolerance="10" guidetolerance="10" id="namedview4" inkscape:current-layer="layer2" inkscape:cx="84.563236" inkscape:cy="253.76034" inkscape:pageopacity="0" inkscape:pageshadow="2" inkscape:window-height="1017" inkscape:window-maximized="1" inkscape:window-width="1920" inkscape:window-x="-8" inkscape:window-y="-8" inkscape:zoom="1.4082464" objecttolerance="10" pagecolor="#ffffff" showgrid="false">
	</sodipodi:namedview>
<g id="layer2" inkscape:groupmode="layer" inkscape:label="Fondo" class="st0">
	<rect id="rect821" x="93" y="33" class="st1" width="313.9" height="318.8"/>
</g>
<g id="layer1" inkscape:groupmode="layer" inkscape:label="Logo" class="st0">
	<path id="path817" inkscape:connector-curvature="0" class="st2" d="M125.3,384C58.1,335.1,2.5,294.4,1.7,293.7
		c-1.2-1.2,5.4-22.5,45.9-147.2L94.9,0.6l153,0.2C332.1,0.9,401.1,1,401.2,1c0.6,0.1,94.5,291,94.2,291.8
		c-0.3,1-246.3,180.2-247.3,180.2C247.8,473,192.6,432.9,125.3,384L125.3,384z M103.7,343.5c0.9-3,3.6-12.5,5.9-21
		c8.8-32.5,23.2-71.9,35-95.8c8.1-16.2,17.8-30.3,26.5-38.6c13.5-12.7,36.7-26.4,64.5-38.1c13.6-5.7,19.9-8.1,66.1-25
		c34.2-12.5,49.8-20.6,67.2-34.9c16.7-13.7,28.2-31.3,32-48.6l0.7-3.4l-5.9,5c-18.3,15.5-48.3,26.3-109.5,39.5
		c-57.2,12.3-86.9,20.8-112,32c-36.9,16.5-53.8,33.6-59.4,60.2c-4.6,21.8-10.4,71.8-14.8,127.3c-4,51.4-4,47.8-0.4,47.3
		C101.4,349.1,102.4,347.7,103.7,343.5L103.7,343.5z M166.9,249.2c31.1-12.4,76-28.8,102.9-37.7c27.1-8.9,33.3-12.4,44.7-24.5
		c8.5-9.1,15.6-20.6,21.3-34.8c4.3-10.6,8.2-24.5,7.2-25.5c-0.3-0.3-3.7,1-7.4,2.8c-10,5-29.1,12.5-52.4,20.5
		c-45.8,15.9-74.5,28.5-88.4,38.8C180.1,199.7,162,223,150,246.3c-5,9.8-5.7,11.3-4.9,11.3C145.3,257.7,155.1,253.8,166.9,249.2
		L166.9,249.2z"/>
</g>
</svg>
